# xmcd CD database file
#
# Track frame offsets:
#	150
#	16377
#	31602
#	42880
#	60395
#	80912
#	94410
#	109145
#	122105
#	131365
#	145810
#	157622
#	178747
#	202520
#
# Disc length: 2871 seconds
#
# Revision: 5
# Processed by: cddbd v1.5.2PL0 Copyright (c) Steve Scherf et al.
# Submitted via: CDex 1.51
#
DISCID=ab0b350e
DTITLE=Various  - American Folk Blues Festival '63 (Part 2) [CD3] (Vanguard)
DYEAR=0
DGENRE=Blues
TTITLE0=Otis Spann, Willie Dixon, Matt 'Guitar" Murphy, Billlie Stepney - Going' Down Slow
TTITLE1=W. Dixon, Memphis Slim, M. Murphy, B. Stepney - Sittin' and Cryin' the Blues
TTITLE2=W. Dixon, M. Slim, M. Murphy, B. Stepney - Crazy for My Baby
TTITLE3=Victoria Spivey, W. Dixon, B. Stepney - Grant Spivey
TTITLE4=Victoria Spivey, W. Dixon, B. Stepney - T.B. Blues
TTITLE5=Big Joe Williams - Big Roll Blues
TTITLE6=Big Joe Williams - Back in the Bottom Blues
TTITLE7=Big Joe Williams - I Have No Friends
TTITLE8=Big Joe Williams - Baby Please Don't Go
TTITLE9=Lonnie Johnson - Careless Love
TTITLE10=Lonnie Johnson - C.C. Rider
TTITLE11=Lonnie Johnson - It's Too Late To Cry
TTITLE12=Matt'Guitar'Murphy, Memphis Slim, Willie Dixon, B. Stepney - Matt's Guitar Boogie
TTITLE13=Memphis Slim and all - Bye Bye Blues
EXTD=Recorded live in Bremen, Germany on October 13, 1963. YEAR: 0
EXTT0=
EXTT1=
EXTT2=
EXTT3=
EXTT4=
EXTT5=
EXTT6=
EXTT7=
EXTT8=
EXTT9=
EXTT10=
EXTT11=
EXTT12=
EXTT13=
PLAYORDER=
